<?xml version="1.0" encoding="UTF-8"?>
<svg id="uuid-47cf744a-4678-4450-8840-daeb5a14797b" data-name="图层 2" xmlns="http://www.w3.org/2000/svg" viewBox="0 0 780.7 780.7">
  <defs>
    <style>
      .uuid-dfce765e-2d70-4878-a57d-f642674bfc13 {
        opacity: .5;
      }

      .uuid-dfce765e-2d70-4878-a57d-f642674bfc13, .uuid-1dcc677e-300c-4fc6-b6bf-9f17e2fcbb15 {
        fill: #fefdd9;
      }

      .uuid-dfce765e-2d70-4878-a57d-f642674bfc13, .uuid-1dcc677e-300c-4fc6-b6bf-9f17e2fcbb15, .uuid-35bd930c-85c2-4dac-a4b5-902b1108ab96, .uuid-00e541dc-d6e5-4a1c-a493-0f6a3bbde026 {
        stroke-linejoin: round;
      }

      .uuid-dfce765e-2d70-4878-a57d-f642674bfc13, .uuid-1dcc677e-300c-4fc6-b6bf-9f17e2fcbb15, .uuid-35bd930c-85c2-4dac-a4b5-902b1108ab96, .uuid-00e541dc-d6e5-4a1c-a493-0f6a3bbde026, .uuid-09174847-606c-4653-8f0d-9c113e01d339 {
        stroke: #684d39;
        stroke-width: 3px;
      }

      .uuid-35bd930c-85c2-4dac-a4b5-902b1108ab96 {
        fill: #af5448;
      }

      .uuid-00e541dc-d6e5-4a1c-a493-0f6a3bbde026 {
        fill: #d1e7fc;
      }

      .uuid-09174847-606c-4653-8f0d-9c113e01d339 {
        fill: #6f5732;
        stroke-miterlimit: 10;
      }

      .uuid-e2eec52d-1e2f-43eb-8c2a-9ffe07342f99 {
        fill: #684d39;
      }
    </style>
  </defs>
  <g id="uuid-33f82354-76fb-4d02-8156-56b1671ced7e" data-name="图层 3">
    <g>
      <g>
        <polygon class="uuid-00e541dc-d6e5-4a1c-a493-0f6a3bbde026" points="158.85 726.39 66.52 639.11 59.04 646.59 153.5 733.16 158.85 726.39"/>
        <rect class="uuid-35bd930c-85c2-4dac-a4b5-902b1108ab96" x="334.15" y="420.05" width="26" height="26" transform="translate(898.83 493.79) rotate(135)"/>
        <polygon class="uuid-00e541dc-d6e5-4a1c-a493-0f6a3bbde026" points="388.57 487.17 314.05 416.29 308.39 421.95 380.03 493.59 388.57 487.17"/>
        <polygon class="uuid-00e541dc-d6e5-4a1c-a493-0f6a3bbde026" points="340.16 424.57 333.96 416.62 20.16 707.08 25.88 714.7 340.16 424.57"/>
        <polygon class="uuid-00e541dc-d6e5-4a1c-a493-0f6a3bbde026" points="355.22 454.85 349.14 448.78 52.25 741.07 58.24 747.06 355.22 454.85"/>
        <polygon class="uuid-00e541dc-d6e5-4a1c-a493-0f6a3bbde026" points="373.5 473.14 88.94 771.62 93.7 779.2 378.94 478.57 373.5 473.14"/>
        <polygon class="uuid-00e541dc-d6e5-4a1c-a493-0f6a3bbde026" points="361.94 513.79 288.05 439.9 281.96 445.99 356.04 522.52 361.94 513.79"/>
        <polygon class="uuid-00e541dc-d6e5-4a1c-a493-0f6a3bbde026" points="325.72 552.85 251.37 472.66 241.39 479.76 320.68 560.71 325.72 552.85"/>
        <polygon class="uuid-00e541dc-d6e5-4a1c-a493-0f6a3bbde026" points="287.75 593.64 280.57 600.82 202.65 515.73 210.42 510.73 287.75 593.64"/>
        <polygon class="uuid-00e541dc-d6e5-4a1c-a493-0f6a3bbde026" points="247.15 637.08 240.43 643.79 156.64 557.88 164.28 550.24 247.15 637.08"/>
        <polygon class="uuid-00e541dc-d6e5-4a1c-a493-0f6a3bbde026" points="204.01 684.45 197.08 691.39 107.85 599.6 115.49 591.96 204.01 684.45"/>
        <g>
          <path class="uuid-1dcc677e-300c-4fc6-b6bf-9f17e2fcbb15" d="m366.71,492.21c-19.9-15.02-38.14-33.7-55.13-55.13-83.25,82.22-176.21,166.85-275.8,253.12,21.59,30.31,45.1,55.57,71.97,71.97,85.34-81.69,171.76-172.54,258.96-269.96Z"/>
          <path class="uuid-09174847-606c-4653-8f0d-9c113e01d339" d="m144.48,724.26c2.08-2.05,4.16-4.1,6.24-6.15l-33.57-31.73,39.19-38.56,31.86,32.77c2.31-2.34,4.62-4.71,6.94-7.07l-31.48-32.9,38.43-37.81,30.91,31.7c2.22-2.31,4.43-4.63,6.65-6.95l-30.37-31.83,35.84-35.27,28.53,31.15c2.3-2.45,4.59-4.9,6.89-7.36l-28.52-30.58,32.3-31.78,27.74,28.31c2.12-2.3,4.23-4.6,6.35-6.91l-26.64-28.73,29.81-29.33,25.58,26.43c2.27-2.51,4.54-5.03,6.8-7.55l-25.58-25.58,11.53-11.35c-2.03-2-4.04-4.03-6.03-6.11l-11.57,11.39-24.31-24.31c-2.1,2.06-4.22,4.12-6.34,6.18l23.93,24.73-29.67,29.21-23.67-25.53c-2.79,2.67-5.61,5.35-8.43,8.03l24.49,25-32.14,31.64-24.52-26.29c-2.25,2.11-4.5,4.21-6.76,6.33l24.44,26.69-35.96,35.4-26.11-27.36c-2.6,2.38-5.22,4.76-7.83,7.14l26.68,27.36-38.36,37.77-28-29.26c-2.64,2.36-5.29,4.73-7.94,7.1l28.58,29.4-39.44,38.83-32-30.25c-2.59,2.27-5.16,4.54-7.76,6.82l32.92,30.17-38.6,38c1.95,2.07,3.92,4.09,5.91,6.07l38.96-38.33,34.08,31.23Z"/>
          <path class="uuid-dfce765e-2d70-4878-a57d-f642674bfc13" d="m366.71,492.21c-19.9-15.02-38.14-33.7-55.13-55.13-83.25,82.22-176.21,166.85-275.8,253.12,21.59,30.31,45.1,55.57,71.97,71.97,85.34-81.69,171.76-172.54,258.96-269.96Z"/>
        </g>
        <polygon class="uuid-00e541dc-d6e5-4a1c-a493-0f6a3bbde026" points="118.77 770.72 111.59 777.9 19.85 690.02 27.44 682.44 118.77 770.72"/>
        <polygon class="uuid-00e541dc-d6e5-4a1c-a493-0f6a3bbde026" points="325.84 410.14 14.51 695.77 5.23 686.49 318.51 402.81 325.84 410.14"/>
      </g>
      <g>
        <polygon class="uuid-00e541dc-d6e5-4a1c-a493-0f6a3bbde026" points="621.85 54.32 714.18 141.59 721.66 134.11 627.21 47.55 621.85 54.32"/>
        <rect class="uuid-35bd930c-85c2-4dac-a4b5-902b1108ab96" x="420.56" y="334.66" width="26" height="26" transform="translate(-118.84 408.4) rotate(-45)"/>
        <polygon class="uuid-00e541dc-d6e5-4a1c-a493-0f6a3bbde026" points="392.14 293.54 466.66 364.41 472.31 358.75 400.68 287.12 392.14 293.54"/>
        <polygon class="uuid-00e541dc-d6e5-4a1c-a493-0f6a3bbde026" points="440.54 356.14 446.75 364.08 760.54 73.62 754.82 66 440.54 356.14"/>
        <polygon class="uuid-00e541dc-d6e5-4a1c-a493-0f6a3bbde026" points="425.49 325.85 431.56 331.93 728.45 39.63 722.46 33.65 425.49 325.85"/>
        <polygon class="uuid-00e541dc-d6e5-4a1c-a493-0f6a3bbde026" points="407.2 307.57 691.76 9.09 687 1.5 401.76 302.13 407.2 307.57"/>
        <polygon class="uuid-00e541dc-d6e5-4a1c-a493-0f6a3bbde026" points="418.76 266.91 492.66 340.8 498.75 334.71 424.66 258.18 418.76 266.91"/>
        <polygon class="uuid-00e541dc-d6e5-4a1c-a493-0f6a3bbde026" points="454.99 227.86 529.33 308.04 539.32 300.94 460.02 220 454.99 227.86"/>
        <polygon class="uuid-00e541dc-d6e5-4a1c-a493-0f6a3bbde026" points="492.95 187.06 500.13 179.88 578.05 264.98 570.28 269.97 492.95 187.06"/>
        <polygon class="uuid-00e541dc-d6e5-4a1c-a493-0f6a3bbde026" points="533.56 143.63 540.28 136.91 624.07 222.82 616.43 230.47 533.56 143.63"/>
        <polygon class="uuid-00e541dc-d6e5-4a1c-a493-0f6a3bbde026" points="576.69 96.25 583.63 89.32 672.86 181.11 665.22 188.75 576.69 96.25"/>
        <g>
          <path class="uuid-1dcc677e-300c-4fc6-b6bf-9f17e2fcbb15" d="m413.99,288.49c19.9,15.02,38.14,33.7,55.13,55.13,83.25-82.22,176.21-166.85,275.8-253.12-21.59-30.31-45.1-55.57-71.97-71.97-85.34,81.69-171.76,172.54-258.96,269.96Z"/>
          <path class="uuid-09174847-606c-4653-8f0d-9c113e01d339" d="m636.22,56.44c-2.08,2.05-4.16,4.1-6.24,6.15l33.57,31.73-39.19,38.56-31.86-32.77c-2.31,2.34-4.62,4.71-6.94,7.07l31.48,32.9-38.43,37.81-30.91-31.7c-2.22,2.31-4.43,4.63-6.65,6.95l30.37,31.83-35.84,35.27-28.53-31.15c-2.3,2.45-4.59,4.9-6.89,7.36l28.52,30.58-32.3,31.78-27.74-28.31c-2.12,2.3-4.23,4.6-6.35,6.91l26.64,28.73-29.81,29.33-25.58-26.43c-2.27,2.51-4.54,5.03-6.8,7.55l25.58,25.58-11.53,11.35c2.03,2,4.04,4.03,6.03,6.11l11.57-11.39,24.31,24.31c2.1-2.06,4.22-4.12,6.34-6.18l-23.93-24.73,29.67-29.21,23.67,25.53c2.79-2.67,5.61-5.35,8.43-8.03l-24.49-25,32.14-31.64,24.52,26.29c2.25-2.11,4.5-4.21,6.76-6.33l-24.44-26.69,35.96-35.4,26.11,27.36c2.6-2.38,5.22-4.76,7.83-7.14l-26.68-27.36,38.36-37.77,28,29.26c2.64-2.36,5.29-4.73,7.94-7.1l-28.58-29.4,39.44-38.83,32,30.25c2.59-2.27,5.16-4.54,7.76-6.82l-32.92-30.17,38.6-38c-1.95-2.07-3.92-4.09-5.91-6.07l-38.96,38.33-34.08-31.23Z"/>
          <path class="uuid-dfce765e-2d70-4878-a57d-f642674bfc13" d="m413.99,288.49c19.9,15.02,38.14,33.7,55.13,55.13,83.25-82.22,176.21-166.85,275.8-253.12-21.59-30.31-45.1-55.57-71.97-71.97-85.34,81.69-171.76,172.54-258.96,269.96Z"/>
        </g>
        <polygon class="uuid-00e541dc-d6e5-4a1c-a493-0f6a3bbde026" points="661.94 9.99 669.12 2.81 760.85 90.68 753.26 98.27 661.94 9.99"/>
        <polygon class="uuid-00e541dc-d6e5-4a1c-a493-0f6a3bbde026" points="454.86 370.56 766.2 84.94 775.47 94.21 462.2 377.9 454.86 370.56"/>
      </g>
      <g>
        <polygon class="uuid-00e541dc-d6e5-4a1c-a493-0f6a3bbde026" points="54.32 158.85 141.59 66.52 134.11 59.04 47.55 153.5 54.32 158.85"/>
        <rect class="uuid-35bd930c-85c2-4dac-a4b5-902b1108ab96" x="334.66" y="334.15" width="26" height="26" transform="translate(348.02 838.45) rotate(-135)"/>
        <polygon class="uuid-00e541dc-d6e5-4a1c-a493-0f6a3bbde026" points="293.54 388.57 364.41 314.05 358.75 308.39 287.12 380.03 293.54 388.57"/>
        <polygon class="uuid-00e541dc-d6e5-4a1c-a493-0f6a3bbde026" points="356.14 340.16 364.08 333.96 73.62 20.16 66 25.88 356.14 340.16"/>
        <polygon class="uuid-00e541dc-d6e5-4a1c-a493-0f6a3bbde026" points="325.85 355.22 331.93 349.14 39.63 52.25 33.65 58.24 325.85 355.22"/>
        <polygon class="uuid-00e541dc-d6e5-4a1c-a493-0f6a3bbde026" points="307.57 373.5 9.09 88.94 1.5 93.7 302.13 378.94 307.57 373.5"/>
        <polygon class="uuid-00e541dc-d6e5-4a1c-a493-0f6a3bbde026" points="266.91 361.94 340.8 288.05 334.71 281.96 258.18 356.04 266.91 361.94"/>
        <polygon class="uuid-00e541dc-d6e5-4a1c-a493-0f6a3bbde026" points="227.86 325.72 308.04 251.37 300.94 241.39 220 320.68 227.86 325.72"/>
        <polygon class="uuid-00e541dc-d6e5-4a1c-a493-0f6a3bbde026" points="187.06 287.75 179.88 280.57 264.98 202.65 269.97 210.42 187.06 287.75"/>
        <polygon class="uuid-00e541dc-d6e5-4a1c-a493-0f6a3bbde026" points="143.63 247.15 136.91 240.43 222.82 156.64 230.47 164.28 143.63 247.15"/>
        <polygon class="uuid-00e541dc-d6e5-4a1c-a493-0f6a3bbde026" points="96.25 204.01 89.32 197.08 181.11 107.85 188.75 115.49 96.25 204.01"/>
        <g>
          <path class="uuid-1dcc677e-300c-4fc6-b6bf-9f17e2fcbb15" d="m288.49,366.71c15.02-19.9,33.7-38.14,55.13-55.13C261.4,228.33,176.78,135.38,90.5,35.78c-30.31,21.59-55.57,45.1-71.97,71.97,81.69,85.34,172.54,171.76,269.96,258.96Z"/>
          <path class="uuid-09174847-606c-4653-8f0d-9c113e01d339" d="m56.44,144.48c2.05,2.08,4.1,4.16,6.15,6.24l31.73-33.57,38.56,39.19-32.77,31.86c2.34,2.31,4.71,4.62,7.07,6.94l32.9-31.48,37.81,38.43-31.7,30.91c2.31,2.22,4.63,4.43,6.95,6.65l31.83-30.37,35.27,35.84-31.15,28.53c2.45,2.3,4.9,4.59,7.36,6.89l30.58-28.52,31.78,32.3-28.31,27.74c2.3,2.12,4.6,4.23,6.91,6.35l28.73-26.64,29.33,29.81-26.43,25.58c2.51,2.27,5.03,4.54,7.55,6.8l25.58-25.58,11.35,11.53c2-2.03,4.03-4.04,6.11-6.03l-11.39-11.57,24.31-24.31c-2.06-2.1-4.12-4.22-6.18-6.34l-24.73,23.93-29.21-29.67,25.53-23.67c-2.67-2.79-5.35-5.61-8.03-8.43l-25,24.49-31.64-32.14,26.29-24.52c-2.11-2.25-4.21-4.5-6.33-6.76l-26.69,24.44-35.4-35.96,27.36-26.11c-2.38-2.6-4.76-5.22-7.14-7.83l-27.36,26.68-37.77-38.36,29.26-28c-2.36-2.64-4.73-5.29-7.1-7.94l-29.4,28.58-38.83-39.44,30.25-32c-2.27-2.59-4.54-5.16-6.82-7.76l-30.17,32.92-38-38.6c-2.07,1.95-4.09,3.92-6.07,5.91l38.33,38.96-31.23,34.08Z"/>
          <path class="uuid-dfce765e-2d70-4878-a57d-f642674bfc13" d="m288.49,366.71c15.02-19.9,33.7-38.14,55.13-55.13C261.4,228.33,176.78,135.38,90.5,35.78c-30.31,21.59-55.57,45.1-71.97,71.97,81.69,85.34,172.54,171.76,269.96,258.96Z"/>
        </g>
        <polygon class="uuid-00e541dc-d6e5-4a1c-a493-0f6a3bbde026" points="9.99 118.77 2.81 111.59 90.68 19.85 98.27 27.44 9.99 118.77"/>
        <polygon class="uuid-00e541dc-d6e5-4a1c-a493-0f6a3bbde026" points="370.56 325.84 84.94 14.51 94.21 5.23 377.9 318.51 370.56 325.84"/>
      </g>
      <g>
        <polygon class="uuid-00e541dc-d6e5-4a1c-a493-0f6a3bbde026" points="726.39 621.85 639.11 714.18 646.59 721.66 733.16 627.21 726.39 621.85"/>
        <rect class="uuid-35bd930c-85c2-4dac-a4b5-902b1108ab96" x="420.05" y="420.56" width="26" height="26" transform="translate(433.41 -179.23) rotate(45)"/>
        <polygon class="uuid-00e541dc-d6e5-4a1c-a493-0f6a3bbde026" points="487.17 392.14 416.29 466.66 421.95 472.31 493.59 400.68 487.17 392.14"/>
        <polygon class="uuid-00e541dc-d6e5-4a1c-a493-0f6a3bbde026" points="424.57 440.54 416.62 446.75 707.08 760.54 714.7 754.82 424.57 440.54"/>
        <polygon class="uuid-00e541dc-d6e5-4a1c-a493-0f6a3bbde026" points="454.85 425.49 448.78 431.56 741.07 728.45 747.06 722.46 454.85 425.49"/>
        <polygon class="uuid-00e541dc-d6e5-4a1c-a493-0f6a3bbde026" points="473.14 407.2 771.62 691.76 779.2 687 478.57 401.76 473.14 407.2"/>
        <polygon class="uuid-00e541dc-d6e5-4a1c-a493-0f6a3bbde026" points="513.79 418.76 439.9 492.66 445.99 498.75 522.52 424.66 513.79 418.76"/>
        <polygon class="uuid-00e541dc-d6e5-4a1c-a493-0f6a3bbde026" points="552.85 454.99 472.66 529.33 479.76 539.32 560.71 460.02 552.85 454.99"/>
        <polygon class="uuid-00e541dc-d6e5-4a1c-a493-0f6a3bbde026" points="593.64 492.95 600.82 500.13 515.73 578.05 510.73 570.28 593.64 492.95"/>
        <polygon class="uuid-00e541dc-d6e5-4a1c-a493-0f6a3bbde026" points="637.08 533.56 643.79 540.28 557.88 624.07 550.24 616.43 637.08 533.56"/>
        <polygon class="uuid-00e541dc-d6e5-4a1c-a493-0f6a3bbde026" points="684.45 576.69 691.39 583.63 599.6 672.86 591.96 665.22 684.45 576.69"/>
        <g>
          <path class="uuid-1dcc677e-300c-4fc6-b6bf-9f17e2fcbb15" d="m492.21,413.99c-15.02,19.9-33.7,38.14-55.13,55.13,82.22,83.25,166.85,176.21,253.12,275.8,30.31-21.59,55.57-45.1,71.97-71.97-81.69-85.34-172.54-171.76-269.96-258.96Z"/>
          <path class="uuid-09174847-606c-4653-8f0d-9c113e01d339" d="m724.26,636.22c-2.05-2.08-4.1-4.16-6.15-6.24l-31.73,33.57-38.56-39.19,32.77-31.86c-2.34-2.31-4.71-4.62-7.07-6.94l-32.9,31.48-37.81-38.43,31.7-30.91c-2.31-2.22-4.63-4.43-6.95-6.65l-31.83,30.37-35.27-35.84,31.15-28.53c-2.45-2.3-4.9-4.59-7.36-6.89l-30.58,28.52-31.78-32.3,28.31-27.74c-2.3-2.12-4.6-4.23-6.91-6.35l-28.73,26.64-29.33-29.81,26.43-25.58c-2.51-2.27-5.03-4.54-7.55-6.8l-25.58,25.58-11.35-11.53c-2,2.03-4.03,4.04-6.11,6.03l11.39,11.57-24.31,24.31c2.06,2.1,4.12,4.22,6.18,6.34l24.73-23.93,29.21,29.67-25.53,23.67c2.67,2.79,5.35,5.61,8.03,8.43l25-24.49,31.64,32.14-26.29,24.52c2.11,2.25,4.21,4.5,6.33,6.76l26.69-24.44,35.4,35.96-27.36,26.11c2.38,2.6,4.76,5.22,7.14,7.83l27.36-26.68,37.77,38.36-29.26,28c2.36,2.64,4.73,5.29,7.1,7.94l29.4-28.58,38.83,39.44-30.25,32c2.27,2.59,4.54,5.16,6.82,7.76l30.17-32.92,38,38.6c2.07-1.95,4.09-3.92,6.07-5.91l-38.33-38.96,31.23-34.08Z"/>
          <path class="uuid-dfce765e-2d70-4878-a57d-f642674bfc13" d="m492.21,413.99c-15.02,19.9-33.7,38.14-55.13,55.13,82.22,83.25,166.85,176.21,253.12,275.8,30.31-21.59,55.57-45.1,71.97-71.97-81.69-85.34-172.54-171.76-269.96-258.96Z"/>
        </g>
        <polygon class="uuid-00e541dc-d6e5-4a1c-a493-0f6a3bbde026" points="770.72 661.94 777.9 669.12 690.02 760.85 682.44 753.26 770.72 661.94"/>
        <polygon class="uuid-00e541dc-d6e5-4a1c-a493-0f6a3bbde026" points="410.14 454.86 695.77 766.2 686.49 775.47 402.81 462.2 410.14 454.86"/>
      </g>
      <g>
        <rect class="uuid-00e541dc-d6e5-4a1c-a493-0f6a3bbde026" x="375.35" y="375.35" width="30.01" height="30.01" transform="translate(-161.69 390.36) rotate(-45)"/>
        <g>
          <circle class="uuid-e2eec52d-1e2f-43eb-8c2a-9ffe07342f99" cx="398.6" cy="390.35" r="3.25"/>
          <circle class="uuid-e2eec52d-1e2f-43eb-8c2a-9ffe07342f99" cx="390.11" cy="398.84" r="3.25"/>
          <circle class="uuid-e2eec52d-1e2f-43eb-8c2a-9ffe07342f99" cx="398.6" cy="390.35" r="3.25"/>
          <circle class="uuid-e2eec52d-1e2f-43eb-8c2a-9ffe07342f99" cx="390.11" cy="398.84" r="3.25"/>
        </g>
        <g>
          <circle class="uuid-e2eec52d-1e2f-43eb-8c2a-9ffe07342f99" cx="390.11" cy="381.87" r="3.25"/>
          <circle class="uuid-e2eec52d-1e2f-43eb-8c2a-9ffe07342f99" cx="381.63" cy="390.35" r="3.25"/>
          <circle class="uuid-e2eec52d-1e2f-43eb-8c2a-9ffe07342f99" cx="390.11" cy="381.87" r="3.25"/>
          <circle class="uuid-e2eec52d-1e2f-43eb-8c2a-9ffe07342f99" cx="381.63" cy="390.35" r="3.25"/>
        </g>
        <rect class="uuid-00e541dc-d6e5-4a1c-a493-0f6a3bbde026" x="397.53" y="396.17" width="30.01" height="32.74" transform="translate(-170.88 412.54) rotate(-45)"/>
        <rect class="uuid-00e541dc-d6e5-4a1c-a493-0f6a3bbde026" x="353.17" y="351.8" width="30.01" height="32.74" transform="translate(-152.5 368.17) rotate(-45)"/>
        <rect class="uuid-00e541dc-d6e5-4a1c-a493-0f6a3bbde026" x="396.17" y="353.17" width="32.74" height="30.01" transform="translate(-139.51 399.54) rotate(-45)"/>
        <rect class="uuid-00e541dc-d6e5-4a1c-a493-0f6a3bbde026" x="351.8" y="397.53" width="32.74" height="30.01" transform="translate(-183.87 381.16) rotate(-45)"/>
        <circle class="uuid-e2eec52d-1e2f-43eb-8c2a-9ffe07342f99" cx="358.29" cy="366.54" r="3.25"/>
        <circle class="uuid-e2eec52d-1e2f-43eb-8c2a-9ffe07342f99" cx="366.78" cy="358.05" r="3.25"/>
        <circle class="uuid-e2eec52d-1e2f-43eb-8c2a-9ffe07342f99" cx="414.17" cy="358.29" r="3.25"/>
        <circle class="uuid-e2eec52d-1e2f-43eb-8c2a-9ffe07342f99" cx="422.65" cy="366.78" r="3.25"/>
        <circle class="uuid-e2eec52d-1e2f-43eb-8c2a-9ffe07342f99" cx="366.54" cy="422.41" r="3.25"/>
        <circle class="uuid-e2eec52d-1e2f-43eb-8c2a-9ffe07342f99" cx="358.05" cy="413.93" r="3.25"/>
        <circle class="uuid-e2eec52d-1e2f-43eb-8c2a-9ffe07342f99" cx="422.41" cy="414.17" r="3.25"/>
        <circle class="uuid-e2eec52d-1e2f-43eb-8c2a-9ffe07342f99" cx="413.93" cy="422.65" r="3.25"/>
      </g>
    </g>
  </g>
</svg>