<?xml version="1.0" encoding="UTF-8"?>
<svg id="uuid-e02bceca-0a9c-4ece-839b-89154ed782eb" data-name="图层 2" xmlns="http://www.w3.org/2000/svg" xmlns:xlink="http://www.w3.org/1999/xlink" viewBox="0 0 775 612.5">
  <defs>
    <style>
      .uuid-22552bcb-fe72-4daa-a05c-f58f35b9c8bb {
        fill: #adbfb1;
      }

      .uuid-6f48590a-061d-419c-bb2f-0fe8324ca93d, .uuid-b44df263-b5ac-43bb-8ec6-0b6349ceff73, .uuid-1b21e618-3607-4da6-a3f2-56ef348d72ae, .uuid-f8b86605-73da-4d17-b6fb-599d6df2d016, .uuid-99f9d845-66f4-4cad-9d0b-7cf0c99ca88d, .uuid-bc115b33-dd78-4277-a697-f26187349562, .uuid-f8cffdb8-6796-4904-9117-d015d529dd1a, .uuid-3ac1935c-ef31-486f-b58d-8365a9f3f4d5, .uuid-3472f95d-8cd9-4456-ae96-f4168d5d2b29, .uuid-97441e72-2164-4602-81df-7ff225f88b07 {
        stroke-miterlimit: 10;
      }

      .uuid-6f48590a-061d-419c-bb2f-0fe8324ca93d, .uuid-1b21e618-3607-4da6-a3f2-56ef348d72ae, .uuid-f8b86605-73da-4d17-b6fb-599d6df2d016, .uuid-ab6c34a7-953e-4fab-866d-8bb1b5628619, .uuid-bc115b33-dd78-4277-a697-f26187349562, .uuid-4de3087f-f63d-4480-a35d-687e42057440, .uuid-f8cffdb8-6796-4904-9117-d015d529dd1a, .uuid-b10fe7a9-6336-49dc-9c4c-a9e91b967da2, .uuid-05579cc5-eb4b-42e3-8cf6-a936402765eb, .uuid-b9c62038-511f-4a51-a38f-ae99554db701, .uuid-fb742215-c3cc-493b-bb5d-1d0e709e2b4e, .uuid-3472f95d-8cd9-4456-ae96-f4168d5d2b29, .uuid-97441e72-2164-4602-81df-7ff225f88b07, .uuid-00b3708a-6d1a-421d-b1e3-f88f3f0ee0c9, .uuid-06808930-5666-435f-9251-2f319068a9de, .uuid-70ddb3a1-e754-4433-9292-1d8ab9a59727 {
        stroke: #684d39;
        stroke-width: 3px;
      }

      .uuid-6f48590a-061d-419c-bb2f-0fe8324ca93d, .uuid-f55cf24e-7d5d-4abd-96e6-e4e5d6b6f9e2, .uuid-587db82f-2901-4021-bba7-135ec3380c03, .uuid-b10fe7a9-6336-49dc-9c4c-a9e91b967da2, .uuid-7c1dd8b7-613e-452c-b086-44f2f8360ee0, .uuid-2d74536a-3cf5-4099-bfb1-2602d6f3a37a, .uuid-3ac1935c-ef31-486f-b58d-8365a9f3f4d5, .uuid-60370135-2245-4b25-a255-bcb37728acd4, .uuid-330d834f-1c29-4b6c-963c-fdb3bf638e9a {
        fill: none;
      }

      .uuid-f6296427-6795-46e8-8850-5ce3600f19e9 {
        fill: #976c41;
      }

      .uuid-c357811d-2b83-40ef-a4ee-1e0e2928ba8e {
        fill: #fff;
      }

      .uuid-c333ed1e-2bda-41cb-8687-cd4ad66be16a {
        fill: #e4ca8c;
      }

      .uuid-b44df263-b5ac-43bb-8ec6-0b6349ceff73 {
        fill: #fbd477;
      }

      .uuid-b44df263-b5ac-43bb-8ec6-0b6349ceff73, .uuid-99f9d845-66f4-4cad-9d0b-7cf0c99ca88d, .uuid-3ac1935c-ef31-486f-b58d-8365a9f3f4d5 {
        stroke: #4e332a;
      }

      .uuid-722bbe5c-19f7-40bf-8c0e-08f1606fa454 {
        fill: #cff4ff;
      }

      .uuid-1b21e618-3607-4da6-a3f2-56ef348d72ae {
        fill: #d4c8ac;
      }

      .uuid-f8b86605-73da-4d17-b6fb-599d6df2d016 {
        fill: #c4a673;
      }

      .uuid-f55cf24e-7d5d-4abd-96e6-e4e5d6b6f9e2 {
        clip-path: url(#uuid-80feb7f1-1efe-4bab-ac99-e82acb924ec7);
      }

      .uuid-ab6c34a7-953e-4fab-866d-8bb1b5628619 {
        fill: #ecdb9c;
      }

      .uuid-ab6c34a7-953e-4fab-866d-8bb1b5628619, .uuid-4de3087f-f63d-4480-a35d-687e42057440, .uuid-b10fe7a9-6336-49dc-9c4c-a9e91b967da2, .uuid-05579cc5-eb4b-42e3-8cf6-a936402765eb, .uuid-b9c62038-511f-4a51-a38f-ae99554db701, .uuid-fb742215-c3cc-493b-bb5d-1d0e709e2b4e, .uuid-00b3708a-6d1a-421d-b1e3-f88f3f0ee0c9, .uuid-06808930-5666-435f-9251-2f319068a9de, .uuid-70ddb3a1-e754-4433-9292-1d8ab9a59727 {
        stroke-linejoin: round;
      }

      .uuid-99f9d845-66f4-4cad-9d0b-7cf0c99ca88d {
        fill: #875e44;
      }

      .uuid-99f9d845-66f4-4cad-9d0b-7cf0c99ca88d, .uuid-3ac1935c-ef31-486f-b58d-8365a9f3f4d5 {
        stroke-width: 2px;
      }

      .uuid-f810f6f9-58e3-4f0f-8d8a-b979c467d639 {
        fill: #685a40;
      }

      .uuid-bc115b33-dd78-4277-a697-f26187349562 {
        fill: #b29e7c;
      }

      .uuid-4de3087f-f63d-4480-a35d-687e42057440 {
        fill: #c2ad67;
      }

      .uuid-65057d6f-4e62-431d-b8a3-93f7e5269702 {
        fill: #c8c3b1;
      }

      .uuid-587db82f-2901-4021-bba7-135ec3380c03 {
        clip-path: url(#uuid-1140bec8-ef91-41b7-b3a0-466a41455860);
      }

      .uuid-f8cffdb8-6796-4904-9117-d015d529dd1a {
        fill: #f9f3e6;
      }

      .uuid-326eef09-dca7-4aed-b65d-f0222c0c6987 {
        fill: #f6f4df;
      }

      .uuid-6299c2da-6128-43da-b17e-fc183dc5ae4a {
        fill: #c5c3af;
      }

      .uuid-55fc0838-539f-46db-a5e8-dc97949dbcbc {
        fill: #b2834b;
      }

      .uuid-a8e6ba0d-2e40-4c5d-9bde-41ed4696393e {
        fill: #d6c9aa;
      }

      .uuid-4c9dd9ef-ab7c-414a-a5f7-4ad331a93054 {
        fill: #fffeff;
      }

      .uuid-8053509d-b71f-43f3-8436-a3ecaf819eb2 {
        fill: #f1fcff;
      }

      .uuid-ba731eff-e47c-458b-a7ec-8b5b1ef41113 {
        fill: #b0a27b;
      }

      .uuid-05579cc5-eb4b-42e3-8cf6-a936402765eb {
        fill: #c4aa77;
      }

      .uuid-b9c62038-511f-4a51-a38f-ae99554db701 {
        fill: #c1e7f4;
      }

      .uuid-7c1dd8b7-613e-452c-b086-44f2f8360ee0 {
        clip-path: url(#uuid-18ece24f-ba9c-4ea7-8f60-b0921fd6ba3d);
      }

      .uuid-ba7bcbbc-f77b-49f1-b344-5e4ded8620cc {
        fill: #cac2b0;
      }

      .uuid-fb742215-c3cc-493b-bb5d-1d0e709e2b4e {
        fill: #a1b6ab;
      }

      .uuid-ed5899ff-39e9-4f8f-b0a3-e9778d5b8421 {
        fill: #eefbff;
      }

      .uuid-3472f95d-8cd9-4456-ae96-f4168d5d2b29 {
        fill: #d6c8ad;
      }

      .uuid-97441e72-2164-4602-81df-7ff225f88b07 {
        fill: #d8e686;
      }

      .uuid-00b3708a-6d1a-421d-b1e3-f88f3f0ee0c9 {
        fill: #f1e2a2;
      }

      .uuid-60370135-2245-4b25-a255-bcb37728acd4 {
        clip-path: url(#uuid-6b502124-459a-415a-ab79-4a4e5b661dd5);
      }

      .uuid-06808930-5666-435f-9251-2f319068a9de {
        fill: #c3ac72;
      }

      .uuid-70ddb3a1-e754-4433-9292-1d8ab9a59727 {
        fill: #fcfadd;
      }

      .uuid-330d834f-1c29-4b6c-963c-fdb3bf638e9a {
        clip-path: url(#uuid-0bbd0273-5a38-4359-b3b7-11dea1fbb263);
      }
    </style>
    <clipPath id="uuid-6b502124-459a-415a-ab79-4a4e5b661dd5">
      <rect class="uuid-2d74536a-3cf5-4099-bfb1-2602d6f3a37a" y="379.5" width="775" height="233"/>
    </clipPath>
    <clipPath id="uuid-18ece24f-ba9c-4ea7-8f60-b0921fd6ba3d">
      <polygon class="uuid-2d74536a-3cf5-4099-bfb1-2602d6f3a37a" points="478.05 352.5 311.95 352.5 304.5 533.5 485.5 533.5 478.05 352.5"/>
    </clipPath>
    <clipPath id="uuid-80feb7f1-1efe-4bab-ac99-e82acb924ec7">
      <polygon class="uuid-2d74536a-3cf5-4099-bfb1-2602d6f3a37a" points="578.5 405.5 506.5 360.5 518.5 535.5 597.5 551.5 578.5 405.5"/>
    </clipPath>
    <clipPath id="uuid-0bbd0273-5a38-4359-b3b7-11dea1fbb263">
      <polygon class="uuid-2d74536a-3cf5-4099-bfb1-2602d6f3a37a" points="205.5 405.5 278.5 357.5 266.5 534.5 197.5 544.5 205.5 405.5"/>
    </clipPath>
    <clipPath id="uuid-1140bec8-ef91-41b7-b3a0-466a41455860">
      <path class="uuid-2d74536a-3cf5-4099-bfb1-2602d6f3a37a" d="m353,411.74c-3.98,38.76-5.79,79.7-5.96,122.26l95.85.74c-1.46-44.83-4.02-86.61-8.88-122-26.87-3.43-53.87-3.73-81-1Z"/>
    </clipPath>
  </defs>
  <g id="uuid-ca4609fa-aaea-438e-bfdf-b0ec154cdfca" data-name="图层 2">
    <g class="uuid-60370135-2245-4b25-a255-bcb37728acd4">
      <g>
        <g>
          <path class="uuid-97441e72-2164-4602-81df-7ff225f88b07" d="m382,528.5c-162.06,0-300.79,34.54-358.01,83.5h716.02c-57.22-48.96-195.95-83.5-358.01-83.5Z"/>
          <path class="uuid-f8b86605-73da-4d17-b6fb-599d6df2d016" d="m276.8,612h229.59c-5.6-30.03-17.6-58.34-37.62-84.52-33.32-3.24-68.46-4.98-104.77-4.98-15.56,0-30.9.32-45.98.94-20.4,27.8-34.13,57.32-41.22,88.56Z"/>
        </g>
        <path class="uuid-f810f6f9-58e3-4f0f-8d8a-b979c467d639" d="m78.64,608.79l1.19,4.32c.21.76,1.07,1.3,1.85,1.05s1.27-1.03,1.05-1.85l-1.19-4.32c-.21-.76-1.07-1.3-1.85-1.05s-1.27,1.03-1.05,1.85h0Z"/>
        <path class="uuid-f810f6f9-58e3-4f0f-8d8a-b979c467d639" d="m71.52,610.23c.02,1.69.26,3.38.7,5.01.21.76,1.08,1.3,1.85,1.05s1.27-1.03,1.05-1.85-.38-1.6-.49-2.42l.05.4c-.1-.73-.15-1.46-.16-2.2-.01-.78-.68-1.54-1.5-1.5s-1.51.66-1.5,1.5h0Z"/>
        <path class="uuid-f810f6f9-58e3-4f0f-8d8a-b979c467d639" d="m115.01,585.92c0,1.83.43,3.59,1.16,5.26.14.32.57.6.9.69.36.1.84.05,1.16-.15s.6-.51.69-.9c.1-.42.02-.77-.15-1.16-.02-.05-.04-.1-.07-.15l.15.36c-.39-.92-.65-1.88-.79-2.87l.05.4c-.07-.49-.1-.99-.1-1.49,0-.78-.69-1.54-1.5-1.5s-1.5.66-1.5,1.5h0Z"/>
        <path class="uuid-f810f6f9-58e3-4f0f-8d8a-b979c467d639" d="m118.88,585.2c.51.69.94,1.44,1.28,2.24l-.15-.36c.16.39.3.78.42,1.19.11.37.36.7.69.9s.8.27,1.16.15c.76-.25,1.28-1.04,1.05-1.85-.39-1.35-1.01-2.65-1.85-3.78-.24-.32-.49-.58-.9-.69-.36-.1-.84-.05-1.16.15s-.6.51-.69.9-.08.84.15,1.16h0Z"/>
        <path class="uuid-f810f6f9-58e3-4f0f-8d8a-b979c467d639" d="m124.52,583.17c-.13-.31.08.2.1.25.05.12.1.24.15.37.12.28.23.57.34.86.21.53.41,1.07.61,1.6.41,1.11.79,2.24,1.14,3.37.23.75,1.06,1.3,1.85,1.05s1.3-1.04,1.05-1.85c-.76-2.43-1.65-4.81-2.64-7.16-.14-.32-.58-.6-.9-.69-.36-.1-.84-.05-1.16.15s-.6.51-.69.9c-.1.42-.02.76.15,1.16h0Z"/>
        <path class="uuid-f810f6f9-58e3-4f0f-8d8a-b979c467d639" d="m147.33,600.05c.35,1.44.7,2.89,1.04,4.33.18.76,1.09,1.29,1.85,1.05.79-.26,1.24-1.03,1.05-1.85-.35-1.44-.7-2.89-1.04-4.33-.18-.76-1.09-1.29-1.85-1.05-.79.26-1.24,1.03-1.05,1.85h0Z"/>
        <path class="uuid-f810f6f9-58e3-4f0f-8d8a-b979c467d639" d="m152.16,600.05c.5,1.62,1.01,3.24,1.51,4.86.23.75,1.06,1.3,1.85,1.05s1.3-1.04,1.05-1.85c-.5-1.62-1.01-3.24-1.51-4.86-.23-.75-1.06-1.3-1.85-1.05s-1.3,1.04-1.05,1.85h0Z"/>
        <path class="uuid-f810f6f9-58e3-4f0f-8d8a-b979c467d639" d="m157.28,598.61c.49,1.34.98,2.68,1.47,4.02.14.37.34.69.69.9.32.19.8.27,1.16.15s.71-.34.9-.69.29-.78.15-1.16c-.49-1.34-.98-2.68-1.47-4.02-.14-.37-.34-.69-.69-.9-.32-.19-.8-.27-1.16-.15s-.71.34-.9.69-.29.78-.15,1.16h0Z"/>
        <path class="uuid-f810f6f9-58e3-4f0f-8d8a-b979c467d639" d="m192.69,564.49c-.47,1.82-.48,3.72-.05,5.54.18.76,1.09,1.29,1.85,1.05.8-.26,1.24-1.03,1.05-1.85-.08-.32-.14-.64-.18-.96l.05.4c-.12-.88-.12-1.77,0-2.66l-.05.4c.05-.38.13-.76.23-1.13.2-.76-.25-1.66-1.05-1.85s-1.63.24-1.85,1.05h0Z"/>
        <path class="uuid-f810f6f9-58e3-4f0f-8d8a-b979c467d639" d="m199.19,562.63l.6,4.1c.05.35.4.73.69.9.32.19.8.27,1.16.15s.71-.34.9-.69l.15-.36c.07-.27.07-.53,0-.8l-.6-4.1c-.05-.35-.4-.73-.69-.9-.32-.19-.8-.27-1.16-.15s-.71.34-.9.69l-.15.36c-.07.27-.07.53,0,.8h0Z"/>
        <path class="uuid-f810f6f9-58e3-4f0f-8d8a-b979c467d639" d="m206,563.19c.11.25-.09-.22-.02-.04.02.06.05.12.07.18.05.14.1.27.15.41.1.29.2.59.28.89.16.58.28,1.18.36,1.78l-.05-.4c.08.58.11,1.17.11,1.76,0,.78.69,1.54,1.5,1.5s1.5-.66,1.5-1.5c0-2.12-.48-4.16-1.32-6.09-.14-.32-.58-.6-.9-.69-.36-.1-.84-.05-1.16.15s-.6.51-.69.9c-.1.42-.02.77.15,1.16h0Z"/>
        <path class="uuid-f810f6f9-58e3-4f0f-8d8a-b979c467d639" d="m256.68,570.74c-.27,1.18-.48,2.35-.26,3.55.2,1.08.85,2.05,1.78,2.64.66.42,1.68.16,2.05-.54.39-.74.17-1.6-.54-2.05-.06-.04-.11-.07-.16-.11l.3.23c-.16-.12-.29-.26-.41-.42l.23.3c-.13-.18-.24-.37-.32-.57l.15.36c-.11-.27-.18-.55-.22-.84l.05.4c-.05-.42-.03-.84.03-1.26l-.05.4c.06-.44.16-.86.26-1.29.18-.76-.24-1.66-1.05-1.85-.76-.17-1.66.23-1.85,1.05h0Z"/>
        <path class="uuid-f810f6f9-58e3-4f0f-8d8a-b979c467d639" d="m262.11,571.05c-.03,1.44.1,2.88.33,4.3.06.35.4.73.69.9.32.19.8.27,1.16.15s.71-.34.9-.69l.15-.36c.07-.27.07-.53,0-.8-.03-.2-.06-.4-.09-.61l.05.4c-.14-1.09-.21-2.19-.18-3.29.02-.78-.7-1.54-1.5-1.5s-1.48.66-1.5,1.5h0Z"/>
        <path class="uuid-f810f6f9-58e3-4f0f-8d8a-b979c467d639" d="m268.52,570.11c.07.29.13.58.17.87l-.05-.4c.09.68.09,1.35,0,2.03l.05-.4c-.09.68-.27,1.33-.53,1.96l.15-.36c-.02.05-.05.11-.07.16-.17.38-.27.74-.15,1.16.1.35.36.73.69.9.35.18.77.28,1.16.15.35-.11.74-.34.9-.69.46-1.04.73-2.06.84-3.19.09-1-.02-2.02-.26-2.99-.19-.76-1.09-1.29-1.85-1.05s-1.25,1.03-1.05,1.85h0Z"/>
        <path class="uuid-f810f6f9-58e3-4f0f-8d8a-b979c467d639" d="m229.2,604.87c.27,1.23.54,2.46.91,3.66.16.53.37,1.08.68,1.54.45.67,1,1.1,1.75,1.39.34.13.85.03,1.16-.15s.61-.54.69-.9c.2-.86-.26-1.54-1.05-1.85.24.11.29.13.15.06-.04-.02-.09-.05-.13-.08.2.16.24.2.13.1-.04-.03-.07-.07-.11-.1-.27-.28.13.22,0,0-.05-.09-.11-.17-.16-.27s-.09-.19-.14-.28c.23.41.05.11,0-.01-.07-.21-.13-.42-.2-.63-.31-1.09-.56-2.19-.8-3.29-.17-.77-1.1-1.29-1.85-1.05-.81.26-1.23,1.02-1.05,1.85h0Z"/>
        <path class="uuid-f810f6f9-58e3-4f0f-8d8a-b979c467d639" d="m235.74,604.66c.41,1.16.91,2.29,1.51,3.37.18.33.54.59.9.69s.84.05,1.16-.15c.7-.45.94-1.32.54-2.05-.34-.62-.65-1.26-.93-1.91l.15.36c-.15-.36-.29-.73-.43-1.1s-.34-.69-.69-.9c-.32-.19-.8-.27-1.16-.15s-.71.34-.9.69-.29.78-.15,1.16h0Z"/>
        <path class="uuid-f810f6f9-58e3-4f0f-8d8a-b979c467d639" d="m242,604.46c.09.37.16.75.21,1.12l-.05-.4c.07.52.1,1.03.1,1.55,0,.38.17.79.44,1.06s.69.46,1.06.44.79-.14,1.06-.44.44-.65.44-1.06c0-1.03-.13-2.07-.36-3.08-.08-.36-.38-.71-.69-.9s-.8-.27-1.16-.15-.71.34-.9.69c-.19.37-.25.75-.15,1.16h0Z"/>
        <path class="uuid-f810f6f9-58e3-4f0f-8d8a-b979c467d639" d="m504.44,553.76c-.27,1.33-.27,2.66.04,3.98.08.36.38.71.69.9s.8.27,1.16.15c.8-.26,1.24-1.03,1.05-1.85-.05-.24-.1-.47-.13-.71l.05.4c-.08-.64-.08-1.29,0-1.93l-.05.4c.02-.18.06-.36.09-.54.08-.4.06-.8-.15-1.16-.18-.31-.54-.61-.9-.69-.38-.09-.81-.07-1.16.15-.32.2-.61.52-.69.9h0Z"/>
        <path class="uuid-f810f6f9-58e3-4f0f-8d8a-b979c467d639" d="m508.88,553.64c-.1,1.41,0,2.81.24,4.19.06.35.4.72.69.9.32.19.8.27,1.16.15s.71-.34.9-.69l.15-.36c.07-.27.07-.53,0-.8-.03-.19-.06-.39-.09-.58l.05.4c-.14-1.07-.17-2.14-.1-3.22.03-.37-.19-.81-.44-1.06s-.69-.46-1.06-.44-.79.14-1.06.44-.41.65-.44,1.06h0Z"/>
        <path class="uuid-f810f6f9-58e3-4f0f-8d8a-b979c467d639" d="m516.8,555.15c.1.42.18.85.24,1.28l-.05-.4c.12.91.15,1.83.08,2.74-.03.37.19.81.44,1.06s.69.46,1.06.44.79-.14,1.06-.44.41-.65.44-1.06c.11-1.48-.03-2.98-.37-4.42-.18-.76-1.09-1.29-1.85-1.05-.8.26-1.24,1.03-1.05,1.85h0Z"/>
        <path class="uuid-f810f6f9-58e3-4f0f-8d8a-b979c467d639" d="m564.52,562.7c-.84,1.34-1.25,3.01-1.08,4.58.05.41.14.76.44,1.06.26.26.69.46,1.06.44s.79-.14,1.06-.44c.25-.27.48-.67.44-1.06-.05-.48-.05-.96.01-1.44l-.05.4c.07-.52.21-1.03.41-1.51l-.15.36c.13-.3.28-.59.45-.87.42-.67.16-1.68-.54-2.05-.74-.39-1.61-.17-2.05.54h0Z"/>
        <path class="uuid-f810f6f9-58e3-4f0f-8d8a-b979c467d639" d="m569.39,564.55c.24.35.44.71.6,1.1l-.15-.36c.14.34.25.69.34,1.05.05.2.14.37.27.51.11.16.25.29.42.39.17.11.36.17.56.18.2.04.4.04.6-.03.36-.12.71-.34.9-.69.19-.37.24-.75.15-1.16-.12-.51-.3-.98-.51-1.46-.16-.37-.35-.72-.58-1.05-.09-.17-.22-.32-.39-.42-.14-.13-.31-.22-.51-.27-.2-.06-.4-.07-.6-.03-.2,0-.39.07-.56.18-.32.21-.6.51-.69.9s-.08.82.15,1.16h0Z"/>
        <path class="uuid-f810f6f9-58e3-4f0f-8d8a-b979c467d639" d="m574.65,565.45c.17.26.32.53.45.82l-.15-.36c.16.4.28.81.34,1.23l-.05-.4c.06.43.06.85,0,1.28l.05-.4c0,.06-.02.12-.03.17-.07.41-.07.78.15,1.16.18.31.54.61.9.69.38.09.81.07,1.16-.15.31-.2.63-.52.69-.9.15-.88.15-1.72-.04-2.6-.15-.73-.46-1.45-.88-2.07-.22-.33-.51-.58-.9-.69-.36-.1-.84-.05-1.16.15s-.6.51-.69.9-.07.82.15,1.16h0Z"/>
        <path class="uuid-f810f6f9-58e3-4f0f-8d8a-b979c467d639" d="m538.57,595.42c-.54,1.01-.83,2.1-.87,3.24-.01.38.18.8.44,1.06s.69.46,1.06.44.79-.14,1.06-.44.42-.65.44-1.06c0-.19.02-.39.05-.58l-.05.4c.07-.49.2-.97.39-1.42l-.15.36c.07-.17.15-.33.23-.49.19-.35.26-.76.15-1.16-.1-.35-.36-.73-.69-.9-.35-.18-.77-.28-1.16-.15-.36.12-.71.34-.9.69h0Z"/>
        <path class="uuid-f810f6f9-58e3-4f0f-8d8a-b979c467d639" d="m543.03,597.54v2.46c0,.38.17.79.44,1.06s.69.46,1.06.44.79-.14,1.06-.44.44-.65.44-1.06v-2.46c0-.38-.17-.79-.44-1.06s-.69-.46-1.06-.44-.79.14-1.06.44-.44.65-.44,1.06h0Z"/>
        <path class="uuid-f810f6f9-58e3-4f0f-8d8a-b979c467d639" d="m548.88,595.38c.02.79-.03,1.57-.13,2.35l.05-.4c-.1.69-.24,1.38-.43,2.05-.21.75.26,1.67,1.05,1.85s1.62-.24,1.85-1.05c.44-1.55.65-3.19.61-4.8-.02-.78-.68-1.54-1.5-1.5s-1.52.66-1.5,1.5h0Z"/>
        <path class="uuid-f810f6f9-58e3-4f0f-8d8a-b979c467d639" d="m597.9,575.49c.04,1.13-.01,2.26-.16,3.38l.05-.4c0,.07-.02.14-.03.21-.06.2-.07.4-.03.6,0,.2.07.39.18.56.18.31.54.61.9.69.38.09.81.07,1.16-.15.3-.2.64-.52.69-.9.19-1.33.29-2.65.24-3.99-.01-.39-.16-.78-.44-1.06-.26-.26-.69-.46-1.06-.44s-.79.14-1.06.44-.45.66-.44,1.06h0Z"/>
        <path class="uuid-f810f6f9-58e3-4f0f-8d8a-b979c467d639" d="m603.48,576.11l-1.02,2.77c-.13.35-.03.85.15,1.16s.54.61.9.69c.38.09.81.07,1.16-.15l.3-.23c.19-.19.31-.41.39-.66l1.02-2.77c.13-.35.03-.85-.15-1.16s-.54-.61-.9-.69c-.38-.09-.81-.07-1.16.15l-.3.23c-.19.19-.31.41-.39.66h0Z"/>
        <path class="uuid-f810f6f9-58e3-4f0f-8d8a-b979c467d639" d="m610.62,576.27c-.94,1.5-1.59,3.21-1.83,4.97-.06.42-.07.78.15,1.16.18.31.54.61.9.69.38.09.81.07,1.16-.15.3-.2.64-.52.69-.9.14-1.02.42-2.01.82-2.96l-.15.36c.25-.57.53-1.12.86-1.65.42-.67.16-1.68-.54-2.05-.74-.39-1.61-.17-2.05.54h0Z"/>
        <path class="uuid-f810f6f9-58e3-4f0f-8d8a-b979c467d639" d="m639.2,574.99c-.42,1.55-.78,3.13-1.06,4.71-.07.41-.06.79.15,1.16.18.31.54.61.9.69.73.17,1.7-.22,1.85-1.05.28-1.59.64-3.16,1.06-4.71.21-.76-.26-1.66-1.05-1.85s-1.62.24-1.85,1.05h0Z"/>
        <path class="uuid-f810f6f9-58e3-4f0f-8d8a-b979c467d639" d="m645.47,576.32l-.52,3.59c-.06.2-.07.4-.03.6,0,.2.07.39.18.56.18.31.54.61.9.69.38.09.81.07,1.16-.15.3-.2.64-.52.69-.9.17-1.2.34-2.39.52-3.59.06-.2.07-.4.03-.6,0-.2-.07-.39-.18-.56-.18-.31-.54-.61-.9-.69-.38-.09-.81-.07-1.16.15-.3.2-.64.52-.69.9h0Z"/>
        <path class="uuid-f810f6f9-58e3-4f0f-8d8a-b979c467d639" d="m651.22,578.21c-.37.72-.74,1.44-1.11,2.17-.18.36-.26.76-.15,1.16.1.35.36.73.69.9.35.18.77.28,1.16.15.36-.12.72-.34.9-.69.37-.72.74-1.44,1.11-2.17.18-.36.26-.76.15-1.16-.1-.35-.36-.73-.69-.9-.35-.18-.77-.28-1.16-.15-.36.12-.72.34-.9.69h0Z"/>
        <path class="uuid-f810f6f9-58e3-4f0f-8d8a-b979c467d639" d="m613.31,598.36c.09,1.41.22,2.82.41,4.22.05.41.13.75.44,1.06.26.26.69.46,1.06.44s.79-.14,1.06-.44c.25-.27.49-.68.44-1.06-.19-1.4-.32-2.81-.41-4.22-.02-.4-.15-.77-.44-1.06-.26-.26-.69-.46-1.06-.44-.77.03-1.55.66-1.5,1.5h0Z"/>
        <path class="uuid-f810f6f9-58e3-4f0f-8d8a-b979c467d639" d="m617.15,597.93c.19,1.28.45,2.55.76,3.81.19.76,1.09,1.29,1.85,1.05s1.25-1.03,1.05-1.85c-.32-1.26-.57-2.53-.76-3.81-.05-.35-.4-.73-.69-.9-.32-.19-.8-.27-1.16-.15s-.71.34-.9.69l-.15.36c-.07.27-.07.53,0,.8h0Z"/>
        <path class="uuid-f810f6f9-58e3-4f0f-8d8a-b979c467d639" d="m622.48,597.44c.11,1.2.22,2.39.33,3.59.04.41.14.76.44,1.06.26.26.69.46,1.06.44s.79-.14,1.06-.44c.25-.28.48-.67.44-1.06-.11-1.2-.22-2.39-.33-3.59-.04-.41-.14-.76-.44-1.06-.26-.26-.69-.46-1.06-.44s-.79.14-1.06.44c-.25.28-.48.67-.44,1.06h0Z"/>
        <path class="uuid-f810f6f9-58e3-4f0f-8d8a-b979c467d639" d="m666.42,604c-.11,1.13-.23,2.25-.34,3.38-.04.36.19.81.44,1.06.26.26.69.46,1.06.44s.79-.14,1.06-.44l.23-.3c.14-.23.2-.49.2-.76.11-1.13.23-2.25.34-3.38.04-.36-.19-.81-.44-1.06-.26-.26-.69-.46-1.06-.44s-.79.14-1.06.44l-.23.3c-.14.23-.2.49-.2.76h0Z"/>
        <path class="uuid-f810f6f9-58e3-4f0f-8d8a-b979c467d639" d="m672.96,603.9c.02.19.01.38-.01.57l.05-.4c-.08.55-.3,1.07-.51,1.58-.26.64-.44,1.25-.49,1.95-.03.36.19.81.44,1.06s.69.46,1.06.44.79-.14,1.06-.44.41-.65.44-1.06c0-.06.01-.12.02-.17l-.05.4c.09-.63.36-1.2.59-1.79.27-.67.47-1.41.4-2.14-.04-.41-.14-.76-.44-1.06-.26-.26-.69-.46-1.06-.44s-.79.14-1.06.44c-.26.28-.47.67-.44,1.06h0Z"/>
        <path class="uuid-f810f6f9-58e3-4f0f-8d8a-b979c467d639" d="m679.46,605.3c-.25.32-.5.64-.7.99s-.36.73-.52,1.1c-.06.2-.07.4-.03.6,0,.2.07.39.18.56.09.17.22.32.39.42.14.13.31.22.51.27l.4.05c.27,0,.52-.07.76-.2l.3-.23c.19-.19.31-.41.39-.66,0-.02.02-.05.03-.07l-.15.36c.2-.47.46-.91.77-1.32l-.23.3s.02-.03.03-.04c.15-.14.25-.3.31-.48.09-.18.14-.37.13-.58,0-.21-.04-.4-.13-.58-.06-.19-.16-.35-.31-.48l-.3-.23c-.23-.14-.49-.2-.76-.2l-.4.05c-.25.07-.47.2-.66.39h0Z"/>
      </g>
    </g>
    <g>
      <g>
        <g>
          <polygon class="uuid-55fc0838-539f-46db-a5e8-dc97949dbcbc" points="478.05 352.5 311.95 352.5 304.5 533.5 485.5 533.5 478.05 352.5"/>
          <polygon class="uuid-c333ed1e-2bda-41cb-8687-cd4ad66be16a" points="205.5 405.5 278.5 357.5 266.5 534.5 197.5 544.5 205.5 405.5"/>
          <polygon class="uuid-f6296427-6795-46e8-8850-5ce3600f19e9" points="578.5 405.5 506.5 360.5 518.5 535.5 597.5 551.5 578.5 405.5"/>
          <g class="uuid-7c1dd8b7-613e-452c-b086-44f2f8360ee0">
            <g>
              <polygon class="uuid-a8e6ba0d-2e40-4c5d-9bde-41ed4696393e" points="498.27 518.5 300.27 518.5 300.27 521.5 315.4 521.5 313.77 561.94 316.77 562.06 318.4 521.5 471.68 521.5 472.77 556.05 475.77 555.95 474.68 521.5 498.27 521.5 498.27 518.5"/>
              <path class="uuid-a8e6ba0d-2e40-4c5d-9bde-41ed4696393e" d="m316.76,487.5h-16.49v3h190v-3h-16.67l-.82-26h20.49v-3h-196v3h20.54l-1.05,26Zm153.84,0h-150.84l1.05-26h148.97l.82,26Z"/>
              <path class="uuid-a8e6ba0d-2e40-4c5d-9bde-41ed4696393e" d="m319.09,429.5h-16.82v3h186v-3h-16.51l-.73-23h19.24v-3h-39.71l-.54-27h34.25v-3h-14.28l-1.22-38.55-3,.1,1.22,38.45h-52.11l-.37-.04v.04h-90.17l1.42-35.44-3-.12-1.43,35.56h-17.07v3h39.89l-1.56,27h-42.33v3h19.75l-.92,23Zm149.67,0h-146.67l.92-23h145.01l.73,23Zm-21.2-26h-33.6l3.21-27h29.85l.54,27Zm-36.62,0h-29.82l.98-27h32.05l-3.21,27Zm-63.77-27h31.93l-.98,27h-32.51l1.56-27Z"/>
            </g>
          </g>
          <g class="uuid-f55cf24e-7d5d-4abd-96e6-e4e5d6b6f9e2">
            <path class="uuid-ba731eff-e47c-458b-a7ec-8b5b1ef41113" d="m609.78,544.57l-15.51-4.13v-19.12l12.37,4.08,1.25-3.8-30.63-10.1v-22.03l25.27,9.89,1.46-3.72-14.73-5.76v-20.22l16.24,6.7,1.53-3.7-35.76-14.75v-18.6l30.16,14.01,1.69-3.63-19.84-9.22v-16.74l10.04,5.52,1.93-3.5-29.51-16.25h.55v-22h-4v20.1l-26-14.31v-27.78h-4v25.58l-26.04-14.33-1.93,3.5,15.96,8.79v22.15l-16.16-7.51-1.69,3.63,31.84,14.8v20.54l-24.24-9.99-1.53,3.7,13.76,5.68v21.63l-10.27-4.02-1.46,3.72,28.73,11.24v24.36l-25.37-8.37-1.25,3.8,15.63,5.15v23.34l-12.49-3.32-1.03,3.87,24.51,6.52v10.55h4v-9.48l33,8.78v8.71h4v-7.64l28.49,7.58,1.03-3.87Zm-19.51-5.19l-30-7.98v-21.29l30,9.89v19.38Zm-5-51.07l-29-11.35v-20.92l29,11.96v20.31Zm-6-49.7l-25-11.62v-19.23l25,13.76v17.08Zm-55-47.36l26,14.31v19.57l-26-12.08v-21.81Zm14,32.72l29,13.47v18.81l-29-11.96v-20.33Zm-12,19.71l26,10.72v21l-26-10.17v-21.55Zm17,32.5l30,11.74v22.27l-30-9.89v-24.12Zm-11,24.7l24,7.91v21.55l-24-6.38v-23.08Z"/>
          </g>
          <g class="uuid-330d834f-1c29-4b6c-963c-fdb3bf638e9a">
            <path class="uuid-326eef09-dca7-4aed-b65d-f0222c0c6987" d="m297.29,403.91l-1.04-2.82-24.98,9.18v-23.37l27.15-13.04-1.3-2.71-44.85,21.55v-25.19h-3v26.63l-22,10.57v-17.2h-3v18.64l-29.15,14,1.3,2.71,15.85-7.61v16.7l-14.02,5.15,1.04,2.82,25.98-9.54v24.94l-29.96,9.77.93,2.85,12.04-3.92v19.04l-13.92,4.02.83,2.88,27.08-7.82v22.36l-26.8,5.55.61,2.94,9.2-1.9v20.8l-15.79,3.16.59,2.94,32.21-6.44v11.97h3v-12.57l25-5v16.57h3v-17.17l31.79-6.36-.59-2.94-20.21,4.04v-21.21l18.8-3.89-.61-2.94-29.2,6.04v-24.9l38.92-11.23-.83-2.88-22.08,6.37v-21.32l18.96-6.18-.93-2.85-32.04,10.45v-26.18l42.02-15.44Zm-29.02,7.46l-27,9.92v-19.98l27-12.97v23.03Zm-53,2.43l23-11.05v19.64l-23,8.45v-17.04Zm-4,49.23l24-7.83v20.05l-24,6.93v-19.15Zm-3,47.42l25-5.17v21l-25,5v-20.83Zm53,10.23l-25,5v-21.02l25-5.17v21.19Zm-11-21.98l-25,5.17v-22.61l25-7.22v24.65Zm16-32.39l-28,8.08v-20.16l28-9.13v21.21Zm-14-19.8l-24,7.83v-25.06l24-8.82v26.05Z"/>
          </g>
        </g>
        <g>
          <polygon class="uuid-6f48590a-061d-419c-bb2f-0fe8324ca93d" points="478.55 352.5 312.45 352.5 305 533.5 486 533.5 478.55 352.5"/>
          <polygon class="uuid-1b21e618-3607-4da6-a3f2-56ef348d72ae" points="279 357.5 312.45 352.5 305 533.5 267 534.5 279 357.5"/>
          <polygon class="uuid-6f48590a-061d-419c-bb2f-0fe8324ca93d" points="206 405.5 279 357.5 267 534.5 198 544.5 206 405.5"/>
          <polygon class="uuid-f8cffdb8-6796-4904-9117-d015d529dd1a" points="187 420.5 206 405.5 198 544.5 170 551.5 187 420.5"/>
          <polygon class="uuid-3472f95d-8cd9-4456-ae96-f4168d5d2b29" points="507 360.5 478.55 352.5 486 533.5 519 535.5 507 360.5"/>
          <polygon class="uuid-6f48590a-061d-419c-bb2f-0fe8324ca93d" points="579 405.5 507 360.5 519 535.5 598 551.5 579 405.5"/>
          <polygon class="uuid-bc115b33-dd78-4277-a697-f26187349562" points="601 419.5 579 405.5 598 551.5 625 559.5 601 419.5"/>
        </g>
      </g>
      <g>
        <g>
          <g>
            <polygon class="uuid-722bbe5c-19f7-40bf-8c0e-08f1606fa454" points="324.5 212.12 281.5 332.12 498.5 334.12 455.5 215.12 324.5 212.12"/>
            <polygon class="uuid-22552bcb-fe72-4daa-a05c-f58f35b9c8bb" points="530.5 270.12 455.5 215.12 498.5 334.12 606.5 402.12 530.5 270.12"/>
            <polygon class="uuid-c357811d-2b83-40ef-a4ee-1e0e2928ba8e" points="256 273.12 324.5 212.12 281.5 332.12 192.5 393.12 256 273.12"/>
            <polygon class="uuid-722bbe5c-19f7-40bf-8c0e-08f1606fa454" points="351.5 67.12 431.69 67.12 455.5 215.12 324.5 212.12 351.5 67.12"/>
            <polygon class="uuid-c357811d-2b83-40ef-a4ee-1e0e2928ba8e" points="340.5 74.12 351.5 67.12 324.5 212.12 256 273.12 340.5 74.12"/>
            <polygon class="uuid-22552bcb-fe72-4daa-a05c-f58f35b9c8bb" points="443.5 75.12 431.69 67.12 455.5 215.12 530.5 270.12 443.5 75.12"/>
          </g>
          <path class="uuid-ed5899ff-39e9-4f8f-b0a3-e9778d5b8421" d="m461.82,325.28l-32.21-194.21c-.08-.46-.05-.93.07-1.39l1.97-7.1c.22-.78.13-1.62-.24-2.34l-13.6-26.25c-.21-.41-.51-.77-.88-1.06l-16.57-12.89c-.56-.44-1.26-.68-1.97-.68h-30.83c-.53,0-1.05.13-1.51.38l-9.22,4.91c-.85.45-1.45,1.26-1.64,2.21l-8.7,43.51-32.32,194.91c-.34,2.07,1.36,3.91,3.45,3.73l57.72-5.09c2.59-.23,3.85-3.28,2.18-5.27l-7.97-9.48c-16.09-19.14-23.95-43.86-21.88-68.78,1.99-23.96,4.29-50.4,4.83-52.02.97-2.9,4.74-62.81,4.99-66.79,0-.14.03-.28.06-.42l2.42-12.09c.73-3.66,6.06-3.34,6.36.38l8.12,103.11c.04.54.22,1.05.51,1.5l12.62,19.35c.86,1.33,2.84,1.23,3.57-.18l11.03-21.21c.22-.43.34-.89.36-1.37l3.5-102.32c.12-3.41,4.76-4.31,6.15-1.2l6.09,13.71c.16.35.25.72.27,1.1.4,6.37,4.02,63.59,4.96,66.42.54,1.62,2.83,28.06,4.83,52.02,2.07,24.92-5.79,49.64-21.88,68.78l-7.97,9.48c-1.67,1.99-.41,5.04,2.18,5.27l57.72,5.09c2.09.18,3.8-1.65,3.45-3.73Zm-79.11-202.3l-9.89-34.94c-.63-2.21,1.21-4.35,3.49-4.06l15.82,1.98c1.83.23,3.09,1.94,2.76,3.76l-5.93,32.97c-.6,3.35-5.33,3.59-6.26.31Z"/>
          <g>
            <path class="uuid-6299c2da-6128-43da-b17e-fc183dc5ae4a" d="m536.25,346.75l-9.77-16.64c-19.43-33.09-34.66-68.29-42.21-96.68-6.75-25.36-13.6-51.3-13.75-52.62-.25-2.34-14.79-54.64-15.68-57.84-.03-.11-.06-.22-.08-.32l-1.64-8.61c-.49-2.55,2.78.53,3.9,3.68l35.4,98.83c.21.58.49,1.21.83,1.82l14.78,26.84c1.03,1.87,2.23,2.69,2.17,1.49l-.82-17.36c-.02-.33-.11-.76-.26-1.24l-7.06-21.72-29.18-65.41c-.79-.61-1.86-1.99-2.6-3.65l-14.84-33.03c-.71-1.57-.53-2.31.23-1.91l-1.91-4.28-3.47-3.17c-.31-.28-.58-.46-.79-.52l-4.24-1.2c-.4-.11-.56.18-.45.8l5.52,30.43,36.15,176.27,12.24,33.86,8.94,5.63,29.54,13.15c1.68.75,1.13-3.08-.94-6.6Z"/>
            <path class="uuid-6299c2da-6128-43da-b17e-fc183dc5ae4a" d="m551.03,345.58l-.74,9.76c-.16,2.11,2.11,6.9,3.92,8.25l37.87,28.2c1.29.96,1.34-.97.1-3.91l-16.72-39.61-33.55-58.28c6.86,21.71,10.22,41.21,9.13,55.59Z"/>
          </g>
        </g>
        <g>
          <polygon class="uuid-b10fe7a9-6336-49dc-9c4c-a9e91b967da2" points="324.5 212.12 281.5 332.12 498.5 334.12 455.5 215.12 324.5 212.12"/>
          <polygon class="uuid-b10fe7a9-6336-49dc-9c4c-a9e91b967da2" points="530.5 270.12 455.5 215.12 498.5 334.12 606.5 402.12 530.5 270.12"/>
          <polygon class="uuid-b10fe7a9-6336-49dc-9c4c-a9e91b967da2" points="256 273.12 324.5 212.12 281.5 332.12 192.5 393.12 256 273.12"/>
          <polygon class="uuid-b10fe7a9-6336-49dc-9c4c-a9e91b967da2" points="351.5 67.12 431.69 67.12 455.5 215.12 324.5 212.12 351.5 67.12"/>
          <polygon class="uuid-b10fe7a9-6336-49dc-9c4c-a9e91b967da2" points="340.5 74.12 351.5 67.12 324.5 212.12 256 273.12 340.5 74.12"/>
          <polygon class="uuid-b10fe7a9-6336-49dc-9c4c-a9e91b967da2" points="443.5 75.12 431.69 67.12 455.5 215.12 530.5 270.12 443.5 75.12"/>
        </g>
      </g>
      <g>
        <g>
          <path class="uuid-ba7bcbbc-f77b-49f1-b344-5e4ded8620cc" d="m188,423.5l-7-8c29.56-25.92,62.22-49.8,102-69,73.25-8.94,146.85-9.31,221,3,38.65,21.53,73.94,43.47,104.42,66l-6.42,5c-35.52-25.47-69.89-47.58-102-63-56.26-8.81-133.8-8.16-217-5-43.59,23.88-75.51,47.55-95,71Z"/>
          <path class="uuid-8053509d-b71f-43f3-8436-a3ecaf819eb2" d="m283.34,331.47l-.54,15.13c.07-.03.13-.07.2-.1,75.2-9.48,148.94-8.94,221,3,.08.04.15.09.23.13l-4.35-14.14c-71.1-9.54-143.27-10.91-216.54-4.01Z"/>
          <path class="uuid-65057d6f-4e62-431d-b8a3-93f7e5269702" d="m607,403.5c-34.14-26.88-69.66-49.97-107-68-.04,0-.08,0-.12-.02l4.35,14.14c36.91,20.2,71.58,42.2,104.19,65.87l-1.42-12Z"/>
          <path class="uuid-4c9dd9ef-ab7c-414a-a5f7-4ad331a93054" d="m283,331.5c-35.21,19.92-68.25,40.04-92,61,0,0-10,22-10,23,29.9-27.35,64.07-50.06,101.8-68.9l.54-15.13c-.11.01-.23.02-.34.03Z"/>
        </g>
        <g>
          <path class="uuid-b10fe7a9-6336-49dc-9c4c-a9e91b967da2" d="m181,415.5c0-1,10-23,10-23,23.75-20.96,56.79-41.08,92-61,73.43-6.93,145.76-5.57,217,4,37.34,18.03,72.86,41.12,107,68l1.42,12c-32.68-23.72-67.42-45.77-104.42-66-72.06-11.94-145.8-12.48-221-3-37.81,18.86-72.05,41.6-102,69Z"/>
          <path class="uuid-b10fe7a9-6336-49dc-9c4c-a9e91b967da2" d="m188,423.5l-7-8c29.56-25.92,62.22-49.8,102-69,73.25-8.94,146.85-9.31,221,3,38.65,21.53,73.94,43.47,104.42,66l-6.42,5c-35.52-25.47-69.89-47.58-102-63-56.26-8.81-133.8-8.16-217-5-43.59,23.88-75.51,47.55-95,71Z"/>
        </g>
      </g>
      <g>
        <path class="uuid-99f9d845-66f4-4cad-9d0b-7cf0c99ca88d" d="m341,402.81c-3.78,43.15-5.6,86.88-5.5,131.19l118.5.81c-.74-46.11-3.91-90.27-10.12-132-33.24-5.55-67.6-5.22-102.88,0Z"/>
        <path class="uuid-3ac1935c-ef31-486f-b58d-8365a9f3f4d5" d="m353,411.74c-3.98,38.76-5.79,79.7-5.96,122.26l95.85.74c-1.46-44.83-4.02-86.61-8.88-122-26.87-3.43-53.87-3.73-81-1Z"/>
        <path class="uuid-3ac1935c-ef31-486f-b58d-8365a9f3f4d5" d="m414.03,455.69c-14.42.47-27.85.09-39.98-1.4-.3-8.52.02-17.18.91-25.98,13.33-1.63,26.65-1.16,39.98,1.4.69,8.62.45,17.28-.91,25.98Z"/>
        <circle class="uuid-b44df263-b5ac-43bb-8ec6-0b6349ceff73" cx="431" cy="483.5" r="5"/>
        <g class="uuid-587db82f-2901-4021-bba7-135ec3380c03">
          <rect class="uuid-3ac1935c-ef31-486f-b58d-8365a9f3f4d5" x="342.5" y="474.5" width="106" height="19"/>
          <rect class="uuid-3ac1935c-ef31-486f-b58d-8365a9f3f4d5" x="347" y="493.5" width="14" height="40"/>
          <rect class="uuid-3ac1935c-ef31-486f-b58d-8365a9f3f4d5" x="361" y="493.5" width="14" height="40"/>
          <rect class="uuid-3ac1935c-ef31-486f-b58d-8365a9f3f4d5" x="375" y="493.5" width="14" height="40"/>
          <rect class="uuid-3ac1935c-ef31-486f-b58d-8365a9f3f4d5" x="389" y="493.5" width="14" height="40"/>
          <rect class="uuid-3ac1935c-ef31-486f-b58d-8365a9f3f4d5" x="403" y="493.5" width="14" height="40"/>
          <rect class="uuid-3ac1935c-ef31-486f-b58d-8365a9f3f4d5" x="417" y="493.5" width="14" height="40"/>
          <rect class="uuid-3ac1935c-ef31-486f-b58d-8365a9f3f4d5" x="431" y="493.5" width="14" height="40"/>
        </g>
      </g>
      <g>
        <path class="uuid-b9c62038-511f-4a51-a38f-ae99554db701" d="m395.65,326.5l61,35,3,14c-44.95-10.81-90.44-11.86-136.65,0v-11.37s72.65-37.63,72.65-37.63Z"/>
        <path class="uuid-fb742215-c3cc-493b-bb5d-1d0e709e2b4e" d="m337.65,385.5c35.7-8.2,72.15-7.77,109.24,0l12.76-10c-45.55-11.33-91.1-11.33-136.65,0l14.65,10Z"/>
      </g>
      <g>
        <path class="uuid-ab6c34a7-953e-4fab-866d-8bb1b5628619" d="m355,47.5c.27,7.4,2.36,14.37,6,21,17.69-3.03,38.95-1.62,62,2,3.09-6.2,4.71-13.23,5-21-25.42-4.27-49.91-5.43-73-2Z"/>
        <path class="uuid-4de3087f-f63d-4480-a35d-687e42057440" d="m337.5,59c2.73,5.55,6.98,10.53,12.62,15,2.86-2.35,5.73-4.7,10.88-5.5-3.52-6.57-5.8-13.49-6-21l-17.5,11.5Z"/>
        <path class="uuid-06808930-5666-435f-9251-2f319068a9de" d="m435,76.5c-4.39-3.11-8.49-5.38-12-6,2.98-5.51,4.53-12.65,5-21l19.35,13.5c-2.75,5.5-6.98,9.92-12.35,13.5Z"/>
        <path class="uuid-00b3708a-6d1a-421d-b1e3-f88f3f0ee0c9" d="m390,1.5c-14.89,14.38-26.65,29.69-35,46,23.13-3.35,47.56-2.36,73,2-8.33-17.58-20.72-33.69-38-48Z"/>
        <path class="uuid-05579cc5-eb4b-42e3-8cf6-a936402765eb" d="m447.35,63c-10.38-26.09-31.39-45.38-57.35-61.5,17.63,16.21,32.62,32.31,38,48l19.35,13.5Z"/>
        <path class="uuid-70ddb3a1-e754-4433-9292-1d8ab9a59727" d="m355,47.5c8.51-16.48,20.22-31.8,35-46-23.68,17.14-43.03,35.69-52.5,57.5l17.5-11.5Z"/>
      </g>
    </g>
  </g>
</svg>